# Blender 3.6.5
# www.blender.org
o Cube
v -0.357330 -0.327511 -0.258878
v -0.357330 -0.327511 0.297178
v 0.198726 -0.327511 -0.258878
v 0.198726 0.228544 -0.258878
v 0.198726 0.228544 0.297178
v 0.198726 -0.327511 0.297178
v -0.357330 0.228544 0.297178
v -0.357330 0.228544 -0.258878
v -0.220632 1.741018 -0.328801
v 0.314535 1.821604 -0.230032
v -0.305182 1.668140 0.211339
v 0.229985 1.748725 0.310108
v -0.625925 1.734087 -0.903446
v 0.871919 1.959632 -0.627009
v -0.862566 1.530112 0.608316
v 0.635278 1.755656 0.884753
v -0.616587 2.178198 -0.466906
v -0.372123 2.238736 -0.641018
v -0.682318 2.053894 -0.872702
v 0.582700 2.358787 -0.245570
v 0.815526 2.279439 -0.596265
v 0.404942 2.355746 -0.497605
v -0.739354 2.072378 0.317379
v -0.918959 1.849919 0.639060
v -0.561595 2.075418 0.569414
v 0.459934 2.252966 0.538715
v 0.215469 2.192428 0.712826
v 0.578884 2.075464 0.915497
vn 0.9998 -0.0206 -0.0000
vn -0.0000 -0.0000 1.0000
vn -1.0000 -0.0000 -0.0000
vn -0.0000 -1.0000 -0.0000
vn 1.0000 -0.0000 -0.0000
vn -0.0000 -0.0000 -1.0000
vn -0.0000 0.0181 -0.9998
vn -0.9959 0.0900 -0.0000
vn -0.0000 0.0595 0.9982
vn 0.1622 0.1227 -0.9791
vn 0.1672 -0.9802 -0.1061
vn -0.1622 -0.1227 0.9791
vn -0.9726 -0.1549 -0.1731
vn 0.9726 0.1549 0.1731
vn -0.1672 0.9802 0.1061
vn -0.3763 0.9012 -0.2151
vn 0.1534 0.9808 -0.1201
vn -0.4616 0.8290 0.3156
vn 0.0653 0.9105 0.4083
vn -0.0035 0.7840 -0.6208
vn -0.8099 0.5846 -0.0479
vn 0.5686 0.7987 0.1968
vn -0.2317 0.6029 0.7634
vn 0.9867 -0.0743 0.1444
vn 0.1902 -0.0625 -0.9797
vn -0.9882 0.0268 -0.1511
vn -0.1808 -0.0046 0.9835
vt 0.404288 0.853370
vt 0.546044 0.459561
vt 0.547865 0.852266
vt 0.275911 0.854160
vt 0.419537 0.997772
vt 0.275911 0.998562
vt 0.132340 0.853370
vt 0.000000 1.000000
vt 0.000000 0.855532
vt 0.550856 0.711016
vt 0.691699 0.852857
vt 0.547927 0.852857
vt 0.419537 0.853370
vt 0.563116 0.998563
vt 0.419537 0.997785
vt 0.275911 0.998600
vt 0.132340 0.997761
vt 0.000000 0.435718
vt 0.142914 0.000000
vt 0.142914 0.421973
vt 0.547927 0.566773
vt 0.934310 0.711016
vt 0.555997 0.711016
vt 0.941468 0.566773
vt 0.582199 0.427548
vt 0.944976 0.423188
vt 0.949410 0.338248
vt 0.549100 0.423188
vt 0.547927 0.338248
vt 0.129920 0.565852
vt 0.404288 0.436322
vt 0.274368 0.566067
vt 0.274368 0.710538
vt 0.404288 0.840671
vt 0.950444 0.124668
vt 0.547927 0.209599
vt 0.549142 0.124668
vt 0.955458 0.000000
vt 0.547927 0.068183
vt 0.552286 0.000000
vt 0.549551 0.338248
vt 0.950251 0.254158
vt 0.951874 0.338248
vt 0.000000 0.840068
vt 0.129920 0.710322
vt -0.000000 0.435718
vt 0.508491 0.095407
vt 0.508809 0.305100
vt 0.242100 0.362069
vt 0.241609 0.038438
vt 0.184698 0.095407
vt 0.142914 0.000000
vt 0.143527 0.404198
vt 0.185016 0.305100
vt 0.451407 0.038438
vt 0.547315 0.000000
vt 0.451898 0.362069
vt 0.547927 0.404198
vt 0.645598 0.124668
vt 0.951099 0.068183
vt 0.854759 0.124668
vt 0.857224 0.254158
vt 0.949229 0.209599
vt 0.404288 0.435718
vt 0.419537 0.853370
vt 0.132340 0.997838
vt 0.694628 0.711016
vt 0.563116 0.854148
vt 0.275911 0.854210
vt 0.006443 0.044185
vt 0.890115 0.573913
vt 0.547927 0.566773
vt 0.950582 0.423187
vt 0.547927 0.254158
vt 0.649033 0.254158
s 0
f 4/1/1 12/2/1 5/3/1
f 5/4/2 2/5/2 6/6/2
f 7/7/3 1/8/3 2/9/3
f 3/10/4 2/11/4 1/12/4
f 4/13/5 6/14/5 3/15/5
f 8/7/6 3/16/6 1/17/6
f 8/18/7 10/19/7 4/20/7
f 7/21/8 9/22/8 8/23/8
f 5/24/9 11/25/9 7/26/9
f 13/27/10 21/28/10 14/29/10
f 9/30/11 14/31/11 10/32/11
f 12/33/11 14/31/11 16/34/11
f 16/35/12 24/36/12 15/37/12
f 15/38/13 19/39/13 13/40/13
f 14/41/14 28/42/14 16/43/14
f 12/33/11 15/44/11 11/45/11
f 11/45/11 13/46/11 9/30/11
f 25/47/15 27/48/15 20/49/15
f 17/50/16 18/51/16 19/52/16
f 20/49/17 21/53/17 22/54/17
f 23/55/18 24/56/18 25/47/18
f 26/57/19 27/48/19 28/58/19
f 27/48/15 26/57/15 20/49/15
f 20/49/15 18/51/15 23/55/15
f 22/54/20 19/52/20 18/51/20
f 17/59/21 24/60/21 23/61/21
f 26/57/22 21/53/22 20/49/22
f 27/62/23 24/36/23 28/63/23
f 4/1/24 10/64/24 12/2/24
f 5/4/2 7/65/2 2/5/2
f 7/7/3 8/66/3 1/8/3
f 3/10/4 6/67/4 2/11/4
f 4/13/5 5/68/5 6/14/5
f 8/7/6 4/69/6 3/16/6
f 8/18/25 9/70/25 10/19/25
f 7/21/26 11/71/26 9/22/26
f 5/24/27 12/72/27 11/25/27
f 13/27/10 19/73/10 21/28/10
f 9/30/11 13/46/11 14/31/11
f 12/33/11 10/32/11 14/31/11
f 18/51/15 17/50/15 23/55/15
f 16/35/12 28/63/12 24/36/12
f 15/38/13 24/60/13 19/39/13
f 14/41/14 21/74/14 28/42/14
f 12/33/11 16/34/11 15/44/11
f 11/45/11 15/44/11 13/46/11
f 23/55/15 25/47/15 20/49/15
f 22/54/20 21/53/20 19/52/20
f 17/59/21 19/39/21 24/60/21
f 26/57/22 28/58/22 21/53/22
f 27/62/23 25/75/23 24/36/23
f 20/49/15 22/54/15 18/51/15
