# Blender 3.6.5
# www.blender.org
mtllib badbird.mtl
o Cube
v 0.753955 1.000972 -0.540391
v 0.818092 -0.594659 -0.495797
v 1.000000 1.123342 0.677338
v 0.818092 -0.594659 0.491166
v -1.109511 0.816522 -0.619533
v -0.288954 -0.594659 -0.495797
v -1.000000 1.000000 1.000000
v -0.288954 -0.594659 0.491166
v 1.000000 3.550257 1.043427
v -1.000000 3.550257 1.043427
v 0.937288 3.548932 -1.035635
v -1.263133 3.598183 -0.993583
v -1.132296 2.827397 -1.037738
v 0.521937 2.415919 -0.955315
v -1.467257 3.417047 -1.230101
v 0.450601 3.224105 -1.204783
v 0.001209 3.212781 1.239481
v -0.811758 2.813379 1.140408
v -0.358918 2.816004 1.865642
v -1.528398 3.351946 1.355570
v -0.989906 3.656420 -1.255539
v 0.718832 3.480363 -1.177501
v -1.022798 3.431396 -1.632809
v 0.342166 3.418710 -1.878142
v 1.000000 3.746593 1.073044
v -1.000000 3.746593 1.073044
v -0.581901 2.886817 2.111733
v -0.858271 2.832699 2.075230
v 0.530744 4.382104 0.741030
v -0.906373 5.151364 0.516802
v 0.653032 4.469781 -0.422920
v -0.914484 5.110432 -0.110839
v -1.057022 1.911217 1.971023
v -2.012239 1.211182 2.092969
v -1.253430 1.452087 2.459932
v -1.924179 0.920481 2.819823
v -2.500726 1.770113 -2.503895
v -0.016625 2.849818 -1.894464
v -0.710899 3.316463 -1.998806
v -0.343604 3.184077 -1.844038
v -1.000000 -1.000000 -1.000000
v -1.000000 -1.000000 1.000000
v 1.000000 -1.000000 -1.000000
v 1.000000 -1.000000 1.000000
v 0.000000 -1.000000 -1.000000
v 0.876977 0.000486 -0.770196
v -1.054756 -0.091739 -0.809766
v -0.177778 0.908747 -0.579962
v -0.088889 -0.045627 -0.789981
v -1.000000 -1.000000 1.000000
v -1.000000 1.000000 1.000000
v 1.000000 1.123342 0.677338
v 1.000000 -1.000000 1.000000
v -1.000000 0.000000 1.000000
v 1.000000 0.061671 0.838669
v 0.000000 1.061671 0.838669
v 0.000000 -1.000000 1.000000
v 0.000000 0.030835 0.919335
v 1.006749 0.081918 1.013747
v 1.006749 -0.979752 1.175078
v 0.006749 -0.979752 1.175078
v 0.006749 0.051083 1.094412
v 0.877558 0.027925 -0.891870
v 1.000581 -0.972562 -1.121674
v 0.000581 -0.972562 -1.121674
v -0.088308 -0.018188 -0.911655
v 2.620045 4.551677 -0.202997
v 2.626623 4.598920 0.114655
v 1.845473 4.762582 -0.240317
v 1.822107 4.649451 0.218690
v -2.242640 0.001062 -0.047773
v -2.324392 0.020499 0.540719
v -2.587773 0.998573 0.485564
v -2.768349 0.041931 -0.493156
v -2.684151 0.999607 -0.298568
vn 0.1642 -0.0931 0.9820
vn -0.0000 1.0000 -0.0000
vn -0.3276 -0.0000 0.9448
vn -0.0000 -1.0000 -0.0000
vn 0.9971 -0.0115 -0.0758
vn 0.0092 0.2249 -0.9743
vn -0.9801 0.1500 0.1301
vn -0.9912 -0.0376 0.1271
vn 0.9995 0.0045 -0.0302
vn -0.0106 -0.2370 -0.9714
vn -0.0263 -0.2970 -0.9545
vn 0.4512 -0.2266 -0.8632
vn -0.4888 0.7046 -0.5144
vn -0.8528 -0.1156 -0.5093
vn -0.5063 -0.8012 0.3190
vn -0.4315 -0.2252 -0.8735
vn -0.7811 -0.2157 -0.5859
vn 0.6401 -0.3540 0.6819
vn -0.0828 0.8590 -0.5052
vn 0.0843 0.9505 0.2992
vn 0.5722 -0.5325 -0.6237
vn -0.4217 0.7944 -0.4371
vn -0.0000 0.7703 0.6376
vn 0.1385 -0.3504 -0.9263
vn -0.0000 0.1492 -0.9888
vn -0.9922 -0.0186 0.1233
vn 0.3947 0.9122 0.1102
vn 0.0185 0.3114 0.9501
vn -0.0035 0.5532 -0.8330
vn 0.2521 0.4531 0.8551
vn 0.4414 -0.8134 -0.3788
vn 0.6194 -0.3991 0.6761
vn -0.1843 0.3124 0.9319
vn -0.7718 0.5527 0.3145
vn 0.4849 0.5739 -0.6599
vn -0.0922 -0.8477 0.5225
vn -0.0755 0.0761 -0.9942
vn 0.3408 0.9401 -0.0048
vn 0.4952 -0.8688 -0.0000
vn -0.0000 -0.7794 0.6266
vn -0.0000 -0.7822 -0.6231
vn -0.9123 -0.4094 -0.0000
vn 0.9929 0.1150 0.0307
vn -0.0000 0.2149 -0.9766
vn 0.0102 0.2056 -0.9786
vn 0.0804 -0.0000 0.9968
vn 1.0000 -0.0000 -0.0000
vn -0.0000 -0.0000 1.0000
vn -0.0398 0.9928 -0.1133
vn 0.0778 0.0778 0.9939
vn -0.0000 0.0780 0.9970
vn -0.0000 -0.9934 0.1149
vn -0.9993 0.0030 0.0382
vn 0.9993 -0.0058 -0.0379
vn -0.0000 0.2239 -0.9746
vn -0.9959 -0.0874 -0.0245
vn -0.0510 0.9743 0.2195
vn -0.0000 -0.9755 -0.2200
vn 0.0920 0.9657 0.2427
vn 0.1651 0.4512 -0.8770
vn 0.5815 -0.8064 0.1079
vn -0.2641 0.9395 0.2181
vn -0.5711 -0.5319 0.6253
vn -0.6273 -0.7787 -0.0000
vn -0.1717 0.2106 -0.9624
vn 0.0363 0.9927 -0.1149
vn -0.0777 -0.9970 0.0003
vn 0.0081 -0.2562 0.9666
vn -0.3081 -0.0293 0.9509
vn 0.9925 0.1220 -0.0000
vn 0.9630 0.1670 -0.2114
vn 0.0200 0.2167 -0.9760
vn -0.9981 0.0613 0.0089
vn -0.9977 -0.0012 0.0676
vn 0.9766 -0.1065 -0.1866
vn 0.0676 -0.2705 -0.9603
vn 0.0616 -0.2026 -0.9773
vn -0.0197 -0.3202 -0.9471
vn 0.3785 -0.2028 -0.9031
vn -0.4305 0.6888 -0.5832
vn -0.6850 -0.1570 0.7114
vn 0.4506 -0.8482 -0.2783
vn -0.5029 -0.0147 0.8642
vn 0.5617 -0.1234 0.8181
vn 0.1079 0.9836 -0.1446
vn 0.0114 0.8933 -0.4493
vn 0.6742 -0.6734 -0.3032
vn -0.4429 0.8543 -0.2720
vn -0.2267 0.7035 0.6736
vn 0.2590 -0.3065 -0.9159
vn 0.0270 0.8224 0.5682
vn 0.4786 0.8757 -0.0633
vn -0.0000 0.3417 0.9398
vn 0.0313 0.4985 -0.8663
vn 0.1415 0.5242 0.8397
vn 0.4713 -0.7295 -0.4957
vn 0.9007 -0.4323 -0.0441
vn 0.3739 0.1481 0.9156
vn -0.5234 0.3809 0.7622
vn 0.2029 0.0838 -0.9756
vn 0.0947 -0.6455 0.7578
vn 0.8161 -0.5067 -0.2779
vn -0.1631 0.3423 -0.9253
vn 0.1542 0.0771 0.9850
vn 0.1486 0.1486 0.9777
vn 0.0749 0.1498 0.9859
vn 0.0097 0.2158 -0.9764
vn 0.2665 0.9525 -0.1472
vn -0.0079 0.5522 -0.8336
vn 0.5173 -0.8557 -0.0151
vn -0.1811 0.9819 0.0549
vn -0.9564 -0.2645 -0.1241
vn -0.9906 0.0623 0.1218
vn -0.5970 -0.8002 -0.0565
vn -0.1637 0.1928 -0.9675
vn 0.1130 0.9935 -0.0126
vn -0.5263 0.1438 -0.8380
vt 0.625000 0.750000
vt 0.625000 1.000000
vt 0.375000 0.000000
vt 0.625000 0.000000
vt 0.319190 0.555810
vt 0.180810 0.694190
vt 0.180810 0.555810
vt 0.500000 0.500000
vt 0.375000 0.750000
vt 0.821310 0.179847
vt 0.999870 0.092784
vt 0.950705 0.234785
vt 0.648095 0.555166
vt 0.963663 0.793214
vt 0.648095 0.973214
vt 0.625000 0.250000
vt 0.625000 0.500000
vt 0.625000 0.375000
vt 0.359181 0.409878
vt 0.563619 0.274408
vt 0.516620 0.418473
vt 0.428797 0.565783
vt 0.371135 0.417246
vt 0.343622 0.000199
vt 0.704121 0.458954
vt 0.718310 0.383972
vt 0.733121 0.464314
vt 0.875000 0.500000
vt 0.505153 0.831739
vt 0.404695 0.440074
vt 0.539029 0.761857
vt 0.355555 0.559831
vt 0.424940 0.643613
vt 0.343622 0.681321
vt 0.028601 0.651750
vt 0.268395 0.493597
vt 0.343224 0.909874
vt 0.875000 0.750000
vt 0.020610 0.612146
vt 0.224867 0.455595
vt 0.144682 0.868205
vt 0.000130 0.538629
vt 0.205514 0.565176
vt 0.000130 0.361612
vt 0.129989 0.456416
vt 0.691910 0.606598
vt 0.191525 0.051985
vt 0.343224 0.000199
vt 0.523699 0.549686
vt 0.647628 0.492636
vt 0.684725 0.536642
vt 0.125000 0.500000
vt 0.250000 0.500000
vt 0.375000 0.500000
vt 0.125000 0.750000
vt 0.319190 0.694190
vt 0.999870 0.376582
vt 0.937256 0.247365
vt 0.375000 0.250000
vt 0.500000 0.375000
vt 0.375000 0.375000
vt 0.743697 0.000130
vt 0.691910 0.124922
vt 0.500000 0.875000
vt 0.500000 1.000000
vt 0.250000 0.750000
vt 0.625000 0.875000
vt 0.500000 0.750000
vt 0.647697 0.758645
vt 0.443708 0.555676
vt 0.647187 0.555166
vt 0.647696 0.997992
vt 0.436175 0.795683
vt 0.646567 0.794516
vt 0.437305 0.759813
vt 0.759561 0.384906
vt 0.733381 0.543472
vt 0.733381 0.383972
vt 0.797333 0.376364
vt 0.978181 0.383712
vt 0.812771 0.200985
vt 0.146467 0.430759
vt 0.159814 0.455636
vt 0.154582 0.425450
vt 0.510374 0.554768
vt 0.562510 0.301596
vt 0.669704 0.349666
vt 0.429196 0.021616
vt 0.429196 0.401430
vt 0.694337 0.031263
vt 0.500000 0.000000
vt 0.871784 0.046457
vt 0.973354 0.665587
vt 0.691650 0.000130
vt 0.691910 0.397118
vt 0.000199 0.482508
vt 0.021074 0.861728
vt 0.726175 0.704581
vt 0.500000 0.250000
vt 0.429196 0.999801
vt 0.759561 0.544406
vt 0.716951 0.471367
vt 0.901925 0.000199
s 0
usemtl Material
f 3/1/1 18/2/1 7/2/1
f 42/3/2 50/3/2 51/4/2
f 7/4/3 72/3/3 42/3/3
f 2/5/4 8/6/4 6/7/4
f 46/8/5 3/1/5 44/9/5
f 49/10/6 1/11/6 46/12/6
f 10/13/7 32/14/7 12/15/7
f 5/16/8 10/4/8 12/16/8
f 3/1/9 11/17/9 9/1/9
f 48/18/10 13/16/10 14/17/10
f 13/16/11 16/17/11 14/17/11
f 11/19/12 14/20/12 16/21/12
f 23/16/13 37/16/13 15/16/13
f 12/22/14 13/23/14 5/24/14
f 18/2/15 19/1/15 20/2/15
f 10/4/16 18/4/16 20/4/16
f 3/1/17 19/1/17 17/1/17
f 19/25/18 25/26/18 27/27/18
f 21/28/19 24/17/19 23/28/19
f 12/29/20 22/30/20 21/31/20
f 16/21/21 22/30/21 11/19/21
f 15/32/22 21/33/22 23/34/22
f 26/35/23 27/36/23 25/37/23
f 20/2/24 33/1/24 34/2/24
f 10/38/25 25/1/25 9/1/25
f 10/39/26 28/40/26 26/35/26
f 32/41/27 29/42/27 31/43/27
f 10/38/28 29/1/28 30/38/28
f 12/29/29 31/43/29 11/19/29
f 9/44/30 70/45/30 29/42/30
f 34/2/31 35/1/31 36/2/31
f 27/27/32 33/46/32 19/25/32
f 28/38/33 35/1/33 27/1/33
f 28/40/34 34/47/34 36/48/34
f 38/17/35 39/16/35 40/17/35
f 15/16/36 38/17/36 16/17/36
f 24/49/37 38/50/37 40/51/37
f 23/28/38 40/17/38 39/28/38
f 8/6/39 41/52/39 6/7/39
f 6/7/40 45/53/40 43/54/40
f 8/6/41 44/9/41 42/55/41
f 4/56/42 43/54/42 44/9/42
f 43/57/43 63/58/43 46/12/43
f 41/59/44 49/60/44 45/61/44
f 5/62/45 49/10/45 47/63/45
f 58/64/46 51/2/46 54/65/46
f 42/55/2 44/9/2 57/66/2
f 3/1/47 7/2/47 56/67/47
f 44/9/47 3/1/47 55/68/47
f 57/69/48 54/70/48 50/71/48
f 58/64/49 59/68/49 55/68/49
f 55/68/50 56/67/50 58/64/50
f 60/72/51 62/73/51 61/74/51
f 53/9/52 61/66/52 57/66/52
f 58/75/53 61/74/53 62/73/53
f 53/76/54 59/77/54 60/78/54
f 65/79/55 63/58/55 64/80/55
f 49/60/56 65/61/56 45/61/56
f 49/10/57 63/58/57 66/81/57
f 43/54/58 65/53/58 64/54/58
f 68/82/59 69/83/59 70/45/59
f 11/19/60 69/83/60 67/84/60
f 9/44/61 67/84/61 68/82/61
f 31/43/62 70/45/62 69/83/62
f 73/85/63 74/86/63 71/87/63
f 42/55/64 71/52/64 41/52/64
f 5/88/65 74/86/65 75/89/65
f 5/16/66 73/4/66 7/4/66
f 47/90/67 71/87/67 74/86/67
f 3/1/68 17/1/68 18/2/68
f 51/4/2 7/4/2 42/3/2
f 50/3/2 54/91/2 51/4/2
f 7/4/69 73/4/69 72/3/69
f 2/5/4 4/56/4 8/6/4
f 44/9/70 43/54/70 46/8/70
f 46/8/71 1/17/71 3/1/71
f 49/10/72 48/92/72 1/11/72
f 10/13/73 30/93/73 32/14/73
f 5/16/74 7/4/74 10/4/74
f 3/1/75 1/17/75 11/17/75
f 14/17/76 1/17/76 48/18/76
f 48/18/77 5/16/77 13/16/77
f 13/16/78 15/16/78 16/17/78
f 11/19/79 1/94/79 14/20/79
f 23/16/80 39/16/80 37/16/80
f 12/22/81 15/32/81 13/23/81
f 18/2/82 17/1/82 19/1/82
f 10/4/83 7/4/83 18/4/83
f 3/1/84 9/1/84 19/1/84
f 19/25/84 9/95/84 25/26/84
f 21/28/85 22/17/85 24/17/85
f 12/29/86 11/19/86 22/30/86
f 16/21/87 24/49/87 22/30/87
f 15/32/88 12/22/88 21/33/88
f 26/35/89 28/40/89 27/36/89
f 20/2/90 19/1/90 33/1/90
f 10/38/25 26/38/25 25/1/25
f 10/39/91 20/96/91 28/40/91
f 32/41/92 30/97/92 29/42/92
f 10/38/93 9/1/93 29/1/93
f 12/29/94 32/41/94 31/43/94
f 9/44/95 68/82/95 70/45/95
f 34/2/96 33/1/96 35/1/96
f 27/27/97 35/98/97 33/46/97
f 28/38/98 36/38/98 35/1/98
f 28/40/99 20/96/99 34/47/99
f 38/17/100 37/16/100 39/16/100
f 15/16/101 37/16/101 38/17/101
f 24/49/102 16/21/102 38/50/102
f 23/28/103 24/17/103 40/17/103
f 8/6/39 42/55/39 41/52/39
f 43/54/40 2/5/40 6/7/40
f 6/7/40 41/52/40 45/53/40
f 8/6/41 4/56/41 44/9/41
f 4/56/42 2/5/42 43/54/42
f 43/57/43 64/80/43 63/58/43
f 41/59/45 47/99/45 49/60/45
f 5/62/72 48/92/72 49/10/72
f 58/64/104 56/67/104 51/2/104
f 44/9/2 53/9/2 57/66/2
f 57/66/2 50/55/2 42/55/2
f 7/2/2 51/2/2 56/67/2
f 56/67/2 52/1/2 3/1/2
f 3/1/2 52/1/2 55/68/2
f 55/68/2 53/9/2 44/9/2
f 57/69/50 58/75/50 54/70/50
f 58/64/49 62/64/49 59/68/49
f 55/68/105 52/1/105 56/67/105
f 60/72/106 59/100/106 62/73/106
f 53/9/52 60/9/52 61/66/52
f 58/75/53 57/69/53 61/74/53
f 53/76/54 55/101/54 59/77/54
f 65/79/107 66/81/107 63/58/107
f 49/60/56 66/60/56 65/61/56
f 49/10/57 46/12/57 63/58/57
f 43/54/58 45/53/58 65/53/58
f 68/82/108 67/84/108 69/83/108
f 11/19/109 31/43/109 69/83/109
f 9/44/110 11/19/110 67/84/110
f 31/43/111 29/42/111 70/45/111
f 71/87/112 72/102/112 73/85/112
f 73/85/113 75/89/113 74/86/113
f 42/55/114 72/55/114 71/52/114
f 5/88/115 47/90/115 74/86/115
f 5/16/116 75/16/116 73/4/116
f 47/90/117 41/103/117 71/87/117
