# Blender 3.6.5
# www.blender.org
mtllib untitled.mtl
o Cube
v 3.104410 3.333428 -1.984006
v 1.914854 -0.920204 -0.828136
v 2.878486 3.507734 2.283689
v 2.013945 0.112950 0.763644
v -2.165856 3.166990 -1.960924
v -1.607211 -1.005381 -0.896200
v -2.694203 3.386054 2.160974
v -1.761704 0.312275 1.069399
v 0.224412 6.930446 2.807483
v 2.819148 5.969293 0.439390
v -2.863626 5.942710 0.018165
v 0.199025 5.681328 -0.994501
v 0.199025 5.681328 0.041135
v -1.607211 -1.005381 0.103800
v 0.147227 -0.957842 -0.903489
v 0.112651 -0.957842 0.981296
v 1.867090 -0.910303 -0.025992
v 0.129939 -0.957842 0.038904
v 1.867090 -0.910303 -0.025992
v 1.914854 -0.920204 -0.828136
v 0.147227 -0.957842 -0.903489
v 0.129939 -0.957842 0.038904
v 1.867090 -0.910303 -0.025992
v 1.914854 -0.920204 -0.828136
v 0.147227 -0.957842 -0.903489
v 0.129939 -0.957842 0.038904
v 1.890972 -0.915253 -0.427064
v 1.031041 -0.939023 -0.865812
v 0.998514 -0.934072 0.006456
v 1.014778 -0.936547 -0.429678
v 1.957650 -3.870354 -0.397656
v 1.981533 -3.875304 -0.798728
v 1.097719 -3.894123 -0.836405
v 1.081456 -3.891648 -0.400271
v -0.729992 -0.981611 -0.899845
v -1.607211 -1.005381 -0.396200
v -0.734314 -0.981611 -0.414246
v -0.650022 -3.925480 -0.899494
v -1.527241 -3.949250 -0.895850
v -1.527241 -3.949250 -0.395850
v -0.654344 -3.925480 -0.413896
v -1.247589 4.533690 1.618872
v 2.848817 4.677298 1.323374
v -2.293477 4.419203 -0.959229
v 1.651717 4.507378 -1.489254
v 1.538756 4.594531 1.680230
v 2.961779 4.512333 -0.972102
v -2.659249 4.592039 0.779941
v -0.983416 4.424159 -1.477713
v 0.149152 7.760399 1.787386
v 0.199025 5.681328 -0.476683
v 1.509086 5.686283 0.040469
v -1.111036 5.676373 0.041801
v -1.047226 5.050266 -0.717956
v 1.580402 5.096830 -0.724392
v 1.523921 5.140407 0.860349
v -1.179313 5.105031 0.830336
v -0.035797 6.845387 -1.058887
v -0.035797 6.845387 -0.541069
v -1.345859 6.840431 -0.540403
v -1.282048 6.214324 -1.300160
v 0.414672 6.922026 -1.034854
v 0.414672 6.922026 -0.517036
v 1.724733 6.926981 -0.517702
v 1.796049 6.337528 -1.282563
v 3.959075 1.812454 1.568502
v 4.311275 2.926372 2.409070
v 3.988150 1.646032 3.305814
v -4.309195 1.788620 2.949742
v -4.513572 3.139292 2.187966
v -4.487550 1.950382 0.864492
v 0.843954 6.177465 1.992717
v 0.149152 7.760399 2.046295
v -0.549218 6.147045 1.962038
v 1.531338 4.867469 1.270290
v 0.836537 6.450403 1.323868
v -1.213451 4.819361 1.224604
v -0.515080 6.432715 1.308861
v -0.532149 6.289880 1.635450
v 0.840245 6.313934 1.658292
v 0.843954 6.177465 1.992717
v 0.149152 7.760399 2.305204
v 0.149152 7.760399 2.046295
v 0.840245 6.313934 1.658292
v 0.825810 5.965319 3.027023
v 0.441027 6.756569 3.929217
v -0.567362 5.934898 2.996344
v 0.513096 7.276948 1.865955
v 0.513096 7.276948 2.124864
v 1.955306 7.606520 1.402436
v 2.088187 7.575211 1.736861
v -1.750286 7.485155 1.378841
v -0.266504 7.436797 1.857366
v -0.266504 7.436797 2.116275
v -1.887177 7.440948 1.705430
v -0.035797 6.845387 -1.058887
v -0.035797 6.845387 -0.541069
v -1.345859 6.840431 -0.540403
v -1.282048 6.214324 -1.300160
v -0.032808 6.830569 -1.051476
v -0.032808 6.830569 -0.533658
v -1.342870 6.825613 -0.532992
v -1.279059 6.199507 -1.292749
vn -0.2912 0.7865 0.5447
vn 0.0258 -0.9794 -0.2004
vn 0.8047 -0.5498 0.2239
vn -0.0000 1.0000 -0.0000
vn -0.9317 -0.3627 -0.0192
vn -0.0158 0.3716 -0.9282
vn 0.9815 -0.0961 0.1656
vn -0.2513 0.7365 -0.6280
vn -0.9314 0.3638 0.0146
vn -0.1414 -0.0000 0.9899
vn 0.9980 0.0231 0.0591
vn 0.0243 -0.9997 0.0066
vn 0.0428 -0.0090 -0.9990
vn -0.0032 0.0099 0.9999
vn -0.9990 -0.0229 -0.0371
vn 0.0207 0.0007 0.9998
vn 0.0272 -0.9996 -0.0000
vn -0.0041 -0.0002 -1.0000
vn 0.9996 0.0272 0.0089
vn -0.9996 -0.0272 -0.0000
vn 0.3503 -0.3615 -0.8641
vn -0.4518 0.8921 -0.0000
vn 0.1683 0.6943 -0.6997
vn 0.2786 0.6447 -0.7119
vn 0.4162 0.7386 -0.5304
vn 0.0975 0.8292 0.5503
vn -0.0915 0.5609 0.8228
vn 0.5922 0.5266 -0.6100
vn 0.0027 -0.2469 -0.9690
vn 0.9602 -0.2723 0.0620
vn -0.9932 -0.1165 -0.0000
vn 0.4609 -0.1695 0.8711
vn -0.9131 0.3889 0.1224
vn -0.9033 0.3807 0.1976
vn 0.1136 0.7998 0.5894
vn -0.9838 -0.1698 0.0573
vn -0.0012 0.4471 0.8945
vn 0.9803 0.1977 -0.0000
vn 0.2265 0.7816 -0.5812
vn -0.0011 0.4104 0.9119
vn -0.9852 0.1712 -0.0000
vn -0.3055 -0.3460 -0.8871
vn 0.9613 -0.2721 -0.0422
vn 0.0650 0.5645 0.8229
vn 0.9270 -0.0103 -0.3748
vn -0.9913 -0.1069 0.0765
vn -0.8258 0.0513 -0.5617
vn 0.2358 0.5042 0.8308
vn -0.8685 0.2900 0.4021
vn -0.2328 -0.3297 0.9150
vn -0.9047 0.4057 0.1302
vn 0.9085 0.3553 0.2201
vn 0.9008 0.3689 0.2293
vn -0.3625 0.4078 -0.8380
vn -0.0172 -0.2009 0.9795
vn 0.9071 0.3931 0.1503
vn 0.8727 0.3083 0.3787
vn 0.0019 -0.7514 0.6598
vn -0.7370 0.6317 0.2402
vn 0.8288 0.5452 0.1264
vn -0.1711 0.9723 0.1590
vn -0.7394 -0.4799 0.4721
vn 0.7989 0.6014 -0.0000
vn 0.6809 -0.6530 -0.3317
vn 0.0026 1.0000 -0.0000
vn -0.5110 0.5061 -0.6948
vn -0.6143 0.7891 -0.0000
vn -0.6208 -0.7059 -0.3412
vn 0.9838 0.1698 -0.0573
vn -0.0038 1.0000 -0.0000
vn -0.9803 -0.1978 -0.0000
vn -0.3503 0.3615 0.8641
vn 0.0012 -0.4471 -0.8945
vn -0.3358 0.7137 0.6147
vn 0.8152 -0.5679 -0.1138
vn 0.0243 -0.9996 0.0138
vn 0.0276 -0.9996 0.0067
vn -0.3578 -0.5789 0.7327
vn 0.4130 -0.5928 0.6914
vn 0.0274 -0.9996 0.0005
vn 0.0274 -0.9996 0.0004
vn 0.0272 -0.9996 0.0005
vn 0.0210 -0.9998 0.0065
vn 0.0243 -0.9997 0.0004
vn 0.0271 -0.9996 0.0002
vn -0.9317 -0.3628 -0.0198
vn -0.9959 -0.0903 -0.0000
vn 0.0966 0.5628 -0.8209
vn 0.0207 -0.9997 0.0136
vn -0.4658 0.6633 -0.5857
vn -0.3026 0.5764 -0.7591
vn 0.0144 0.7926 -0.6095
vn 0.3897 0.9210 -0.0000
vn 0.1673 0.6282 0.7599
vn -0.3297 0.7831 0.5273
vn 0.8921 0.3835 0.2392
vn -0.0035 0.8584 -0.5129
vn 0.3925 -0.0157 -0.9196
vn -0.0010 -0.1063 -0.9943
vn -0.3299 -0.0104 -0.9440
vn 0.0468 -0.2741 -0.9606
vn 0.9804 -0.1875 0.0607
vn 0.9650 -0.2433 0.0978
vn 0.9957 0.0780 0.0495
vn 0.9971 0.0619 0.0446
vn -0.9613 -0.2526 -0.1098
vn -0.9919 0.0006 -0.1272
vn -0.9655 -0.1836 -0.1848
vn -0.9914 -0.1303 0.0094
vn 0.0834 0.0541 0.9950
vn -0.5450 -0.2231 0.8082
vn 0.0691 -0.1929 0.9788
vn -0.0191 -0.1268 0.9917
vn -0.9161 0.3582 0.1802
vn -0.5778 0.5168 -0.6318
vn -0.0035 0.8594 -0.5113
vn -0.1892 0.4605 0.8673
vn 0.0609 0.5623 0.8247
vn 0.9245 0.3080 -0.2245
vn -0.8117 0.4265 -0.3991
vn -0.7982 0.5661 0.2059
vn 0.4661 -0.4317 0.7722
vn -0.9101 0.3690 0.1885
vn 0.8963 0.4140 0.1590
vn 0.7764 0.5287 -0.3430
vn 0.9157 0.4019 -0.0000
vn -0.7665 0.6316 0.1161
vn 0.8542 0.5128 -0.0855
vn -0.1861 0.9825 -0.0000
vn 0.2849 -0.3378 0.8970
vn 0.6999 -0.6585 -0.2765
vn -0.0097 0.9914 0.1302
vn 0.2929 0.4015 -0.8677
vn -0.6161 -0.7038 -0.3535
vn -0.9803 -0.1977 -0.0000
vt 0.157988 0.418209
vt 0.242478 0.519870
vt 0.215230 0.524009
vt 0.625000 0.843750
vt 0.625000 0.906250
vt 0.104259 0.366529
vt 0.084778 0.305005
vt 0.609411 0.333724
vt 0.609516 0.333664
vt 0.668927 0.439407
vt 0.625000 0.687500
vt 0.625000 0.562500
vt 0.625000 0.437500
vt 0.625000 0.312500
vt 0.625000 0.375000
vt 0.750000 0.718750
vt 0.750000 0.750000
vt 0.311366 0.848329
vt 0.288547 0.897807
vt 0.288245 0.898025
vt 0.875000 0.562500
vt 0.812500 0.625000
vt 0.812500 0.562500
vt 0.375000 0.375000
vt 0.375000 0.500000
vt 0.375000 0.625000
vt 0.250000 0.625000
vt 0.375000 0.562500
vt 0.312500 0.625000
vt 0.375000 0.437500
vt 0.707730 0.425229
vt 0.689468 0.401770
vt 0.689714 0.402296
vt 0.690266 0.402755
vt 0.690015 0.402215
vt 0.690496 0.362612
vt 0.664863 0.373845
vt 0.690211 0.431762
vt 0.511801 0.200997
vt 0.693925 0.064226
vt 0.602153 0.242340
vt 0.670524 0.000106
vt 0.666144 0.046038
vt 0.375000 0.312500
vt 0.375000 0.250000
vt 0.650027 0.244014
vt 0.728362 0.054553
vt 0.750000 0.562500
vt 0.750000 0.500000
vt 0.812500 0.500000
vt 0.687500 0.562500
vt 0.625000 0.625000
vt 0.687500 0.500000
vt 0.625000 0.500000
vt 0.360613 0.697556
vt 0.456139 0.761770
vt 0.347674 0.738016
vt 0.414509 0.875300
vt 0.335204 0.777811
vt 0.234688 0.895915
vt 0.093670 0.751190
vt 0.200374 0.769575
vt 0.625000 0.250000
vt 0.477926 0.685651
vt 0.594049 0.498043
vt 0.712389 0.818285
vt 0.499852 0.160360
vt 0.426702 0.333502
vt 0.260512 0.414206
vt 0.812500 0.718750
vt 0.781250 0.750000
vt 0.781250 0.718750
vt 0.812500 0.687500
vt 0.781250 0.687500
vt 0.057622 0.475904
vt 0.190945 0.530424
vt 0.136596 0.572319
vt 0.154735 0.855094
vt 0.180064 0.968227
vt 0.100111 0.927407
vt 0.250695 0.927582
vt 0.288313 0.898220
vt 0.288055 0.898405
vt 0.334974 0.915245
vt 0.623574 0.560371
vt 0.698074 0.680791
vt 0.596900 0.668959
vt 0.569136 0.946498
vt 0.625000 0.187500
vt 0.625000 0.062500
vt 0.625000 0.125000
vt 0.107175 0.373154
vt 0.105469 0.368842
vt 0.003608 0.729668
vt 0.066979 0.674788
vt 0.094915 0.729732
vt 0.061530 0.739643
vt 0.056291 0.740544
vt 0.213631 0.706807
vt 0.208749 0.737068
vt 0.132752 0.747201
vt 0.143553 0.746478
vt 0.169349 0.620087
vt 0.825645 0.000106
vt 0.729598 0.037865
vt 0.728573 0.016336
vt 0.718750 0.750000
vt 0.718750 0.718750
vt 0.800947 0.063524
vt 0.831740 0.014302
vt 0.728573 0.181768
vt 0.742062 0.099698
vt 0.810024 0.131880
vt 0.729572 0.037937
vt 0.144049 0.746555
vt 0.133824 0.743136
vt 0.061578 0.741539
vt 0.010048 0.753507
vt 0.056267 0.740681
vt 0.750000 0.625000
vt 0.756484 0.261844
vt 0.787426 0.183661
vt 0.787386 0.261844
vt 0.788376 0.261669
vt 0.788415 0.183487
vt 0.666513 0.441275
vt 0.637025 0.385927
vt 0.509159 0.248759
vt 0.561547 0.366694
vt 0.667214 0.308345
vt 0.667279 0.308328
vt 0.667262 0.308392
vt 0.609412 0.333603
vt 0.875000 0.625000
vt 0.875000 0.500000
vt 0.687500 0.625000
vt 0.728362 0.454409
vt 0.588147 0.856540
vt 0.134330 0.170681
vt 0.812500 0.750000
vt 0.750000 0.687500
vt 0.196070 0.999894
vt 0.000106 0.710496
vt 0.728573 0.181980
s 0
usemtl Material
f 48/1/1 42/2/1 77/3/1
f 72/4/2 87/5/2 74/5/2
f 48/1/3 71/6/3 44/7/3
f 26/8/4 18/9/4 17/10/4
f 43/11/5 66/12/5 68/11/5
f 45/13/6 49/14/6 12/15/6
f 73/16/4 82/17/4 83/16/4
f 52/18/7 65/19/7 64/20/7
f 44/21/8 53/22/8 54/23/8
f 15/24/4 20/25/4 21/24/4
f 2/25/4 19/26/4 20/25/4
f 17/26/4 22/27/4 19/26/4
f 19/26/9 27/28/9 24/25/9
f 22/27/10 29/29/10 23/26/10
f 21/24/4 20/25/4 28/30/4
f 24/31/11 31/32/11 32/33/11
f 33/34/12 31/32/12 34/35/12
f 24/31/13 33/34/13 28/36/13
f 30/37/14 31/32/14 27/38/14
f 30/37/15 33/34/15 34/35/15
f 36/39/16 41/40/16 37/41/16
f 39/42/17 41/40/17 40/43/17
f 35/44/18 39/45/18 6/45/18
f 35/46/19 41/40/19 38/47/19
f 36/39/20 39/42/20 40/43/20
f 51/48/21 61/23/21 58/48/21
f 12/49/22 54/23/22 51/48/22
f 49/50/8 44/21/8 54/23/8
f 55/51/23 10/52/23 47/12/23
f 45/53/24 47/12/24 1/54/24
f 12/49/25 55/51/25 45/53/25
f 46/55/26 43/56/26 75/57/26
f 10/58/27 56/59/27 43/56/27
f 13/60/28 50/61/28 76/62/28
f 15/24/29 35/44/29 5/63/29
f 3/64/30 4/65/30 1/66/30
f 6/67/31 36/39/31 8/68/31
f 42/2/32 7/69/32 8/68/32
f 77/70/33 74/71/33 79/72/33
f 53/22/34 57/73/34 78/74/34
f 11/75/35 57/76/35 53/77/35
f 58/48/4 99/23/4 96/48/4
f 53/22/36 61/23/36 54/23/36
f 53/78/37 59/79/37 60/80/37
f 51/81/38 59/79/38 13/60/38
f 62/82/39 64/20/39 65/19/39
f 52/18/40 63/83/40 13/60/40
f 51/81/41 63/83/41 62/82/41
f 51/81/42 65/19/42 55/84/42
f 68/85/43 66/86/43 67/87/43
f 43/56/44 67/87/44 10/58/44
f 47/88/45 67/87/45 66/86/45
f 71/89/46 69/90/46 70/91/46
f 44/7/47 70/92/47 11/75/47
f 48/1/48 70/92/48 69/93/48
f 79/94/49 9/95/49 73/96/49
f 79/94/50 94/97/50 95/98/50
f 57/73/51 79/72/51 78/74/51
f 75/57/52 72/99/52 46/55/52
f 56/59/53 80/100/53 75/57/53
f 76/62/54 88/101/54 90/102/54
f 46/55/55 74/103/55 42/2/55
f 83/104/56 81/105/56 84/106/56
f 72/107/4 84/108/4 81/107/4
f 9/109/57 81/105/57 82/110/57
f 80/108/4 83/16/4 84/108/4
f 87/111/58 85/112/58 86/113/58
f 9/17/59 87/71/59 86/17/59
f 9/109/60 85/112/60 72/114/60
f 88/101/61 91/115/61 90/102/61
f 80/100/62 89/116/62 73/96/62
f 73/96/63 88/101/63 50/61/63
f 80/100/64 90/102/64 91/115/64
f 93/117/65 95/98/65 94/97/65
f 78/118/66 93/117/66 50/61/66
f 73/96/67 93/117/67 94/97/67
f 79/94/68 92/119/68 78/118/68
f 99/23/69 102/22/69 103/23/69
f 60/22/4 97/120/4 98/22/4
f 61/23/4 98/22/4 99/23/4
f 59/120/4 96/48/4 97/120/4
f 100/121/70 102/122/70 101/123/70
f 97/120/71 100/48/71 101/120/71
f 99/23/72 100/48/72 96/48/72
f 97/124/73 102/122/73 98/125/73
f 77/3/1 57/76/1 48/1/1
f 48/1/74 7/69/74 42/2/74
f 72/4/2 85/4/2 87/5/2
f 48/1/75 69/93/75 71/6/75
f 30/37/76 27/38/76 23/126/76
f 30/37/77 23/126/77 29/127/77
f 14/128/17 36/39/17 37/41/17
f 16/129/78 8/68/78 14/128/78
f 17/10/79 4/65/79 16/129/79
f 17/10/80 16/129/80 26/8/80
f 16/129/81 14/128/81 37/41/81
f 26/8/82 16/129/82 37/41/82
f 28/36/83 30/37/83 25/130/83
f 30/37/77 29/127/77 26/8/77
f 25/130/84 30/37/84 26/8/84
f 15/131/4 21/132/4 25/130/4
f 26/8/4 22/133/4 18/9/4
f 35/46/4 15/131/4 25/130/4
f 35/46/85 25/130/85 37/41/85
f 37/41/82 25/130/82 26/8/82
f 43/11/86 47/12/86 66/12/86
f 73/16/87 9/17/87 82/17/87
f 52/18/7 55/84/7 65/19/7
f 44/21/88 11/134/88 53/22/88
f 15/24/4 2/25/4 20/25/4
f 2/25/4 17/26/4 19/26/4
f 17/26/4 18/27/4 22/27/4
f 19/26/4 23/26/4 27/28/4
f 24/25/4 20/25/4 19/26/4
f 22/27/4 26/27/4 29/29/4
f 23/26/4 19/26/4 22/27/4
f 20/25/4 24/25/4 28/30/4
f 28/30/4 25/24/4 21/24/4
f 24/31/11 27/38/11 31/32/11
f 33/34/89 32/33/89 31/32/89
f 24/31/13 32/33/13 33/34/13
f 30/37/14 34/35/14 31/32/14
f 30/37/15 28/36/15 33/34/15
f 36/39/16 40/43/16 41/40/16
f 39/42/85 38/47/85 41/40/85
f 35/44/18 38/44/18 39/45/18
f 35/46/19 37/41/19 41/40/19
f 36/39/20 6/67/20 39/42/20
f 51/48/21 54/23/21 61/23/21
f 12/49/90 49/50/90 54/23/90
f 49/50/91 5/135/91 44/21/91
f 55/51/92 52/136/92 10/52/92
f 45/53/39 55/51/39 47/12/39
f 12/49/93 51/48/93 55/51/93
f 3/64/94 43/56/94 46/55/94
f 43/56/26 56/59/26 75/57/26
f 10/58/95 52/18/95 56/59/95
f 56/59/96 52/18/96 76/62/96
f 52/18/97 13/60/97 76/62/97
f 35/44/29 6/45/29 5/63/29
f 5/63/98 49/14/98 15/24/98
f 49/14/99 45/13/99 15/24/99
f 45/13/100 1/54/100 15/24/100
f 1/54/101 2/25/101 15/24/101
f 17/10/102 2/137/102 4/65/102
f 2/137/103 1/66/103 4/65/103
f 1/66/104 47/138/104 3/64/104
f 47/138/105 43/56/105 3/64/105
f 14/128/31 8/68/31 36/39/31
f 8/68/106 7/69/106 5/139/106
f 5/139/107 7/69/107 44/7/107
f 7/69/108 48/1/108 44/7/108
f 5/139/109 6/67/109 8/68/109
f 16/129/110 4/65/110 8/68/110
f 4/65/111 3/64/111 46/55/111
f 8/68/112 4/65/112 46/55/112
f 46/55/113 42/2/113 8/68/113
f 77/70/114 42/140/114 74/71/114
f 50/141/115 13/120/115 78/74/115
f 13/120/116 53/22/116 78/74/116
f 11/75/117 48/1/117 57/76/117
f 58/48/4 61/23/4 99/23/4
f 53/22/36 60/22/36 61/23/36
f 53/78/37 13/60/37 59/79/37
f 51/81/38 58/142/38 59/79/38
f 62/82/70 63/83/70 64/20/70
f 52/18/40 64/20/40 63/83/40
f 51/81/41 13/60/41 63/83/41
f 51/81/42 62/82/42 65/19/42
f 43/56/118 68/85/118 67/87/118
f 47/88/119 10/58/119 67/87/119
f 44/7/120 71/6/120 70/92/120
f 48/1/48 11/75/48 70/92/48
f 79/94/121 74/143/121 9/95/121
f 79/94/122 73/96/122 94/97/122
f 57/73/123 77/70/123 79/72/123
f 75/57/56 80/100/56 72/99/56
f 56/59/124 76/62/124 80/100/124
f 76/62/125 50/61/125 88/101/125
f 46/55/55 72/99/55 74/103/55
f 83/104/126 82/110/126 81/105/126
f 72/107/4 80/108/4 84/108/4
f 9/109/4 72/114/4 81/105/4
f 80/108/4 73/16/4 83/16/4
f 9/17/127 74/71/127 87/71/127
f 9/109/128 86/113/128 85/112/128
f 88/101/129 89/116/129 91/115/129
f 80/100/130 91/115/130 89/116/130
f 73/96/63 89/116/63 88/101/63
f 80/100/131 76/62/131 90/102/131
f 93/117/132 92/119/132 95/98/132
f 78/118/133 92/119/133 93/117/133
f 73/96/67 50/61/67 93/117/67
f 79/94/134 95/98/134 92/119/134
f 99/23/69 98/22/69 102/22/69
f 60/22/4 59/120/4 97/120/4
f 61/23/4 60/22/4 98/22/4
f 59/120/4 58/48/4 96/48/4
f 100/121/8 103/144/8 102/122/8
f 97/120/135 96/48/135 100/48/135
f 99/23/72 103/23/72 100/48/72
f 97/124/73 101/123/73 102/122/73
